<svg width="896" height="454" viewBox="0 0 896 454" fill="none" xmlns="http://www.w3.org/2000/svg">
<g clip-path="url(#clip0_119_2)">
<path d="M0 150C0 133.432 13.4315 120 30 120H536H655.41C660.991 120 666.427 121.78 670.927 125.08C676.126 128.893 682.547 130.658 688.965 130.039L752.387 123.919C772.532 121.975 788.782 140.126 784.631 159.934L778.467 189.344C776.609 198.211 779.214 207.426 785.44 214.008C790.295 219.14 793 225.937 793 233.002V338V424C793 440.569 779.569 454 763 454H571.5H284H30C13.4315 454 0 440.569 0 424V264V150Z" fill="#00E56F"/>
<path d="M750.408 48.4364L613.437 185.407C586.686 212.158 586.686 255.53 613.437 282.281C640.188 309.032 683.56 309.032 710.31 282.281L847.281 145.31C874.032 118.559 874.032 75.1873 847.281 48.4364C820.53 21.6854 777.159 21.6854 750.408 48.4364Z" fill="white"/>
<g clip-path="url(#clip1_119_2)">
<path d="M707.42 264.362C724.464 239.553 718.17 205.625 693.362 188.58C668.553 171.536 634.625 177.83 617.58 202.638C600.536 227.447 606.83 261.375 631.638 278.42C656.447 295.464 690.375 289.17 707.42 264.362Z" fill="url(#paint0_linear_119_2)"/>
</g>
</g>
<defs>
<linearGradient id="paint0_linear_119_2" x1="617.58" y1="202.638" x2="707.42" y2="264.362" gradientUnits="userSpaceOnUse">
<stop stop-color="#FFD600"/>
<stop offset="1" stop-color="#FFA238"/>
</linearGradient>
<clipPath id="clip0_119_2">
<rect width="896" height="454" fill="white"/>
</clipPath>
<clipPath id="clip1_119_2">
<rect width="111" height="111" fill="white" transform="translate(607 178)"/>
</clipPath>
</defs>
</svg>
