<svg width="180" height="23" viewBox="0 0 180 23" fill="none" xmlns="http://www.w3.org/2000/svg">
<g clip-path="url(#clip0_1_277)">
<path d="M154.111 11.8775H161.983L158.01 5.64399L154.111 11.8775ZM141.114 21.6479V18.9361L143.858 18.6242C144.807 18.5039 145.209 17.6354 145.327 17.4368L152.166 6.3181C152.722 5.44399 152.178 4.67617 151.463 4.59645L147.87 4.17408V1.43426H163.457C164.332 1.43426 164.887 2.02866 165.244 2.54473L174.348 16.4452C175.065 17.5543 175.621 18.4298 176.535 18.5501L179.4 18.8704V21.6479H161.866V18.9081L164.093 18.6298C165.167 18.5123 166.042 18.034 165.167 16.7235L164.332 15.4508H151.884L150.931 17.0019C150.337 17.9529 150.931 18.5123 151.846 18.6298L154.073 18.9081V21.6479H141.114Z" fill="#808080"/>
<path d="M126.404 17.753H121.236V5.28468H126.404C131.333 5.28468 133.402 6.43851 133.402 11.5195C133.402 16.6439 131.333 17.753 126.404 17.753ZM129.503 1.43438H109.456L109.452 4.1742L111.964 4.43294C112.905 4.57 113.284 5.24552 113.284 6.15599V17.0397C113.284 17.7936 112.965 18.5125 112.132 18.6299L109.44 18.9796V21.6397L129.503 21.6481C138.728 21.6481 142.704 17.16 142.704 11.244C142.704 5.92243 138.728 1.43438 129.503 1.43438Z" fill="#808080"/>
<path d="M0.600006 21.6484H16.8188V18.9463L14.0394 18.6302C13.4009 18.5505 12.7652 18.1547 12.7652 16.7995V13.5464H25.2496V16.6443C25.2496 17.5533 25.0899 18.4302 24.0174 18.5505L21.1931 18.8708V21.6484H37.4147V18.8708L34.5513 18.5505C33.9968 18.4736 33.3597 18.0344 33.3597 16.882V6.35769C33.3597 5.28498 33.7559 4.57031 34.5905 4.49199L37.4147 4.17451V1.43469H21.1931V4.13535L24.0174 4.49199C24.9709 4.61086 25.2496 5.3661 25.2496 6.35769V9.49471H12.7652V6.31853C12.7652 5.12694 13.2426 4.57031 14.0772 4.49199L16.8188 4.17451V1.43469H0.637812V4.17451L3.34305 4.49199C4.41842 4.61086 4.69426 5.40526 4.65506 6.43881V16.682C4.65506 17.8344 4.33721 18.5128 3.30384 18.6302L0.600006 18.9463V21.6484Z" fill="#101010"/>
<path d="M54.7494 4.52948C50.1398 4.52948 47.5144 6.23855 47.5144 11.479C47.5144 16.7992 50.1398 18.5125 54.7494 18.5125C59.3617 18.5125 61.9871 16.7992 61.9871 11.479C61.9871 6.23855 59.3617 4.52948 54.7494 4.52948ZM38.2127 11.4399C38.2127 5.08752 43.3417 0.638634 54.79 0.638634C66.1626 0.638634 71.2916 5.08752 71.2916 11.4399C71.2916 17.9531 66.1626 22.3614 54.79 22.3614C43.3417 22.3614 38.2127 17.9531 38.2127 11.4399Z" fill="#101010"/>
<path d="M72.1947 21.6484H85.1566V18.9463L82.3716 18.6302C81.5749 18.5505 81.0988 17.882 81.0988 16.9603V6.67517L91.8763 20.854C92.2306 21.3309 92.9069 21.6484 93.5426 21.6484H103.721V6.31853C103.721 5.59966 103.913 4.61506 104.954 4.49199L107.774 4.17451V1.43469H94.8154V4.13535L97.6396 4.49199C98.6366 4.61226 98.8704 5.44442 98.8704 6.39685V16.4065L88.1755 2.3074C87.7792 1.79133 87.2626 1.43469 86.5064 1.43469H72.1947V4.17451L74.8972 4.49199C75.8493 4.63324 76.2092 5.11715 76.2092 6.43881V16.682C76.2092 17.8974 75.8773 18.482 74.8566 18.6302L72.1947 18.9463V21.6484Z" fill="#101010"/>
</g>
<defs>
<clipPath id="clip0_1_277">
<rect width="180" height="22.9213" fill="white" transform="translate(0 0.0393066)"/>
</clipPath>
</defs>
</svg>
