<svg width="160" height="37" viewBox="0 0 160 37" fill="none" xmlns="http://www.w3.org/2000/svg">
<path d="M87.0302 12.5481H90.6081V22.5008C90.6081 27.5528 87.8238 30.4504 82.9735 30.4504C78.1735 30.4504 75.4144 27.6032 75.4144 22.6394V12.5607H78.9924V22.526C78.9924 25.4741 80.4412 27.0489 83.0239 27.0489C85.6065 27.0489 87.0302 25.5119 87.0302 22.652V12.5481ZM66.8727 19.6536H58.7846V12.5481H55.2066V30.1859H58.7846V23.0174H66.8601V30.1859H70.4381V12.5481H66.8601V19.6536H66.8727ZM156.472 12.5481V30.1607H160V12.5481H156.472ZM142.425 22.589H148.939V19.3764H142.425V15.7607H151.874V12.5607H138.898V30.1733H152.214V26.9607H142.425V22.589ZM128.391 24.6678L124.384 12.5355H121.462L117.455 24.6678L113.562 12.5481H109.758L115.906 30.1733H118.866L122.873 18.5953L126.879 30.1733H129.865L136 12.5481H132.284L128.391 24.6678ZM103.395 12.6489L111.093 30.1733H107.339L105.751 26.5071H97.6758L97.5624 26.7591L96.0758 30.1733H92.4223L100.195 12.5481H103.32L103.395 12.6489ZM104.252 22.904L101.707 16.9954L99.175 22.904L98.9986 23.3071H104.416L104.252 22.904Z" fill="#24272A"/>
<path d="M19.9816 28.3087C20.032 28.2709 20.0446 28.1953 20.0194 28.1323C16.5455 20.6657 12.2117 13.6302 7.10603 7.16863C7.10603 7.16863 3.04935 11.0237 3.33911 14.8914C3.40699 15.7831 3.65 16.6527 4.05425 17.4504C4.4585 18.2481 5.01605 18.9582 5.69501 19.5402C9.23516 22.9922 17.8021 27.3512 19.7926 28.3465C19.8556 28.3717 19.9312 28.3591 19.9816 28.3087ZM18.6587 31.2567C18.6336 31.1811 18.558 31.1308 18.4698 31.1308L4.2084 31.6221C5.758 34.3811 8.36587 36.5229 11.0745 35.8677C12.9517 35.4016 17.1847 32.441 18.5832 31.4331C18.6965 31.3449 18.6587 31.2693 18.6587 31.2567ZM18.8729 29.9843C18.9485 29.8709 18.8225 29.7701 18.8225 29.7701C12.5611 25.5371 0.416286 19.0363 0.416286 19.0363C0.0137409 20.2701 -0.0988688 21.5802 0.0872092 22.8646C0.273287 24.149 0.753041 25.3733 1.48918 26.4421C2.22532 27.511 3.19803 28.3957 4.33169 29.0275C5.46535 29.6594 6.72944 30.0212 8.02571 30.0851C8.23988 30.1229 16.5044 30.0851 18.7217 30.0725C18.7847 30.0599 18.8351 30.0347 18.8729 29.9843ZM19.8178 1.00802C19.2005 1.05841 17.5249 1.44896 17.5249 1.44896C13.7454 2.41904 12.8509 5.8584 12.8509 5.8584C12.158 8.01272 12.8635 10.3938 12.8635 10.3938C14.1233 15.9875 20.3217 25.1969 21.6572 27.1245C21.7454 27.2253 21.8209 27.1875 21.8209 27.1875C21.8965 27.1623 21.9595 27.0993 21.9595 27.0111C24.0257 6.45052 19.8178 1.00802 19.8178 1.00802ZM24.5422 27.1623C24.6178 27.1875 24.706 27.1623 24.7438 27.0867C26.117 25.1087 32.2776 15.9497 33.5374 10.3812C33.5374 10.3812 34.2178 7.68516 33.5626 5.8458C33.5626 5.8458 32.6304 2.35605 28.8508 1.43637C28.8508 1.43637 27.7674 1.1592 26.6083 0.995422C26.6083 0.995422 22.3753 6.43792 24.4414 26.9985C24.4288 27.0741 24.4792 27.1371 24.5422 27.1623ZM27.9186 31.1434C27.885 31.1501 27.8531 31.1637 27.825 31.1832C27.7968 31.2027 27.7729 31.2277 27.7548 31.2567C27.7422 31.3323 27.7548 31.3953 27.8052 31.4457C29.1658 32.4284 33.3107 35.326 35.3012 35.8803C35.3012 35.8803 38.9925 37.1402 42.1925 31.6347L27.9186 31.1434ZM45.9972 19.0111C45.9972 19.0111 33.8776 25.5245 27.6036 29.7575C27.5406 29.8079 27.5028 29.8835 27.528 29.9591C27.528 29.9591 27.591 30.0725 27.6792 30.0725C29.9217 30.0725 38.413 30.0851 38.6398 30.0473C39.4839 29.9843 40.3154 29.7953 41.0965 29.4804C41.0965 29.4804 44.1201 28.5229 45.6823 25.0835C45.6823 25.0835 47.0807 22.2867 45.9972 19.0111ZM26.4571 28.3087C26.5075 28.3465 26.5831 28.3591 26.6461 28.3213C28.6871 27.3008 37.191 22.9796 40.7059 19.5402C40.7059 19.5402 42.9358 17.7513 43.0492 14.8662C43.3012 10.8726 39.2823 7.16863 39.2823 7.16863C39.2823 7.16863 31.8493 16.1765 26.3942 28.0819C26.3854 28.122 26.3866 28.1636 26.3975 28.2031C26.4085 28.2427 26.429 28.2789 26.4571 28.3087Z" fill="#808080"/>
</svg>
