<svg width="240" height="31" viewBox="0 0 240 31" fill="none" xmlns="http://www.w3.org/2000/svg">
<g clip-path="url(#clip0_1_300)">
<path d="M1.08623 0.203606L0 4.43942H10.0649L6.37206 19.2109L3.6566 30.1085H10.246L12.9612 19.2109L16.654 4.43942H26.6827L27.7327 0.203369H1.08623V0.203606ZM202.238 0.529547C201.703 2.73065 201.21 4.44841 200.718 5.92402H198.256L199.052 5.417C200.425 4.52629 201.102 4.06874 201.116 4.00507C200.383 2.3498 199.763 1.20723 199.198 0.637957C199.182 0.534991 198.136 1.17385 196.12 2.48448L195.432 2.91883C195.447 2.95079 195.529 3.07364 195.686 3.28075C196.395 4.20319 196.995 5.07213 197.46 5.92379H195.432L194.781 8.96519H199.342L199.016 9.58086L198.69 10.1963H193.767L193.151 13.2377H196.554C195.102 15.0101 193.374 16.4337 191.377 17.51L194.563 2.30388H185.765L182.471 18.0167C182.382 18.4279 182.282 18.8192 182.181 19.2114C181.415 22.2514 180.275 24.9782 178.742 27.3938C179.672 28.2149 180.429 29.0952 181.059 30.0366C182.902 27.4068 184.35 24.0397 185.44 19.8992H187.358L186.272 25.0404C186.187 25.7444 185.471 26.0613 184.172 25.9456C184.443 27.2039 184.559 28.4641 184.462 29.7833C187.597 29.7629 189.18 29.0564 189.241 27.611L191.015 19.2114L191.123 18.6322C191.311 18.8187 191.492 19.0119 191.667 19.2114C192.089 19.7096 192.418 20.1994 192.644 20.6958C193.125 20.4583 193.695 20.0933 194.346 19.5371L193.187 23.3023H203.723L203.541 24.2799C203.124 26.3132 202.538 27.301 201.803 27.1762L202.383 24.2799H191.087L190.435 27.2849H199.631C200.157 28.4187 200.381 29.5802 200.283 30.7966C203.217 30.7012 205.014 30.2493 205.713 29.4209C205.932 29.1792 206.162 28.7593 206.401 28.0452C206.881 26.61 207.442 24.5114 208.139 21.7455L208.537 20.1528H204.627L204.845 19.2111L205.134 17.7632C205.829 18.3713 206.446 18.845 206.981 19.2111C207.376 19.4822 207.725 19.6893 208.031 19.8268C208.199 19.6169 208.371 19.4097 208.538 19.2111C209.546 17.9876 210.503 16.9679 211.398 16.134C209.037 15.462 207.308 14.4974 206.22 13.2377H211.398L212.013 10.1963H202.709C202.958 9.83129 203.189 9.43907 203.36 8.96543H211.036L211.651 5.92426H208.9C210.102 4.74974 211.159 3.78375 212.122 3.02795L208.9 1.03657C207.867 2.3543 206.754 3.63747 205.533 4.87424L207.488 6.06889H204.7L205.099 4.80181L205.606 3.5345C206.029 2.4672 206.376 1.65626 206.619 1.14498C206.643 0.93502 206.505 0.829214 206.076 0.78282C205.264 0.655473 203.988 0.571443 202.238 0.529547ZM221.717 0.78282C220.735 1.10876 219.208 1.70383 217.082 2.59289C217.751 4.50025 218.233 6.40311 218.567 8.31331C219.318 8.02785 220.949 7.46757 223.418 6.57543C222.389 2.86818 221.799 0.929103 221.717 0.78282ZM225.301 2.41205L224.54 5.92402H227.437L226.061 12.4769H222.44L221.68 15.9887H225.337L224.649 19.2107L222.44 29.6739H226.495L228.668 19.2107L229.356 15.9887H232.252L231.673 18.6315C231.631 18.827 231.6 19.0185 231.564 19.2107C230.823 23.0933 231.204 26.13 232.686 28.2982C233.59 29.5828 234.681 30.126 235.981 29.9277C237.328 29.997 238.676 27.8231 240 23.4107C238.907 22.9152 237.809 22.4325 236.705 21.9626C236.048 23.9843 235.639 24.6402 235.474 23.9178C235.215 22.8867 235.269 21.3183 235.619 19.2109C235.732 18.5304 235.877 17.799 236.053 17.0025L239.131 2.41205H225.301ZM165.165 2.77421L163.789 8.34976H158.503L157.49 12.4772H176.823L165.165 2.77421ZM188.481 5.417H190.399L189.494 9.72525H187.612L188.481 5.417ZM231.456 5.92402H234.497L233.121 12.4769H230.08L231.456 5.92402ZM35.2994 7.11867C31.282 7.11867 27.798 8.16868 24.8364 10.2685C21.8908 12.3988 19.9778 15.1896 19.1159 18.6317C19.0653 18.8334 19.0118 19.014 18.9713 19.2109C18.3095 22.4074 18.8961 25.0139 20.7454 26.9951C22.7162 29.0805 25.7576 30.1085 29.8689 30.1085C36.8765 30.1085 42.2481 25.8334 42.7939 25.3659L39.7527 24.6781C39.0374 24.843 35.1417 25.9714 31.2446 25.6194C26.3281 25.1777 25.2132 21.5777 25.4883 19.7904H45.2196L45.4007 19.2111L45.5456 18.5957C46.4406 15.0071 45.9669 12.1846 44.1336 10.1601C42.2852 8.11803 39.3572 7.11867 35.2994 7.11867ZM93.7697 7.11867C89.5424 7.11867 85.7192 8.21508 82.2567 10.4496C78.7882 12.6857 76.6607 15.4558 75.8484 18.7044C75.8036 18.8824 75.7383 19.0357 75.7038 19.2111C75.0971 22.2263 75.9007 24.7768 78.0933 26.8503C80.4189 29.0254 83.7107 30.1087 87.9771 30.1087C90.5621 30.1087 93.2745 29.5728 96.123 28.516L97.7884 21.8906C95.8943 23.349 94.3056 24.3178 93.0456 24.8234C91.7454 25.3446 90.3389 25.6197 88.8096 25.6197C86.4129 25.6197 84.5998 24.9768 83.3791 23.6647C82.2988 22.4829 81.912 20.9826 82.2204 19.2114C82.255 19.0161 82.3144 18.8336 82.3651 18.6322C82.8647 16.6368 84.0667 14.9597 85.9857 13.6361C87.9001 12.3124 90.0681 11.6447 92.4662 11.6447C93.9941 11.6447 95.2309 11.9041 96.2314 12.4412C97.2511 12.961 98.3196 13.9372 99.4174 15.3375L101.083 8.63972C98.9239 7.61243 96.488 7.11867 93.7697 7.11867ZM117.628 7.11867C113.61 7.11867 110.126 8.16868 107.165 10.2685C104.218 12.3988 102.305 15.1896 101.445 18.6317C101.394 18.8334 101.342 19.014 101.3 19.2109C100.637 22.4074 101.222 25.0139 103.074 26.9951C105.042 29.0805 108.088 30.1085 112.198 30.1085C119.203 30.1085 124.579 25.8334 125.123 25.3659L122.082 24.6781C121.366 24.843 117.471 25.9714 113.574 25.6194C108.659 25.1777 107.539 21.5777 107.817 19.7904H127.549L127.73 19.2111L127.875 18.5957C128.772 15.0071 128.329 12.1846 126.499 10.1601C124.651 8.11803 121.688 7.11867 117.628 7.11867ZM66.2905 7.7341C63.4986 7.7341 60.7687 8.59712 58.1084 10.3409L52.2069 8.34976L49.4914 19.2109L46.776 30.1085H53.1842L55.7908 19.6095C55.8244 19.4748 55.8661 19.3328 55.8995 19.2109C56.5655 16.7087 57.4591 14.9244 58.5425 13.8891C59.7038 12.7884 61.3171 12.2599 63.43 12.2599C65.3733 12.2599 66.6319 12.6552 67.159 13.4907C67.7079 14.3076 67.6963 15.7991 67.159 17.9438L66.8693 19.2109L64.1178 30.1085H70.5259L73.2413 19.2109L73.857 16.7492C74.6258 13.6806 74.4144 11.4837 73.2051 10.1239C71.8109 8.5306 69.4995 7.7341 66.2905 7.7341ZM148.077 7.7341C145.283 7.7341 142.558 8.59712 139.894 10.3409L133.993 8.34976L131.278 19.2109L128.562 30.1085H134.97L137.577 19.6095C137.612 19.4748 137.651 19.3328 137.686 19.2109C138.355 16.7087 139.242 14.9244 140.329 13.8891C141.492 12.7884 143.1 12.2599 145.216 12.2599C147.158 12.2599 148.417 12.6552 148.945 13.4907C149.493 14.3076 149.483 15.7991 148.945 17.9438L148.619 19.2109L145.904 30.1085H152.312L155.027 19.2109L155.643 16.7492C156.412 13.6806 156.199 11.4837 154.991 10.1239C153.598 8.5306 151.283 7.7341 148.077 7.7341ZM213.136 10.015L212.376 13.5632H215.96L214.765 19.2109L214.005 22.9764C213.84 23.7641 213.21 24.5853 212.122 25.4743C211.802 25.738 211.605 25.9075 211.579 25.9816C211.978 27.2285 212.687 28.4447 213.679 29.5657C213.756 29.5861 214.18 29.2123 214.91 28.4795C215.999 27.3253 218.762 24.781 223.237 20.8406C223.222 20.7897 222.976 20.2614 222.513 19.2838L222.477 19.2111L221.825 17.7632L221.101 18.3787C220.753 18.6842 220.417 18.9654 220.124 19.2114C219.341 19.8891 218.748 20.3861 218.349 20.6958L218.675 19.2114L220.594 10.0154H213.136V10.015ZM34.2858 11.6442C37.6832 11.6442 39.4992 12.9795 39.7163 15.663H26.9362C27.2981 15.0374 27.7182 14.4899 28.2397 13.9975C28.7567 13.508 29.3401 13.072 29.9776 12.7302C30.6321 12.3709 31.3171 12.1133 32.0412 11.9337C32.7735 11.7393 33.5281 11.642 34.2858 11.6442ZM116.615 11.6442C120.012 11.6442 121.831 12.9795 122.045 15.663H109.265C109.63 15.0374 110.052 14.4899 110.569 13.9975C111.089 13.508 111.677 13.072 112.306 12.7302C112.967 12.3709 113.646 12.1133 114.37 11.9337C115.103 11.7394 115.857 11.6421 116.615 11.6442ZM186.96 12.7304H188.843L188.01 16.7492H186.127L186.96 12.7304ZM200.827 13.2372H201.949C202.105 13.6819 202.311 14.1071 202.565 14.5043H199.813L200.32 13.8526L200.827 13.2372ZM162.522 13.4183L161.074 19.2109L158.323 30.1085H164.694L167.446 19.2109L168.894 13.4183H162.522ZM196.916 17.3646H201.442L201.08 19.2109L200.827 20.2612H197.713C197.829 19.873 197.933 19.5255 198.039 19.2109C198.159 18.849 198.256 18.5406 198.365 18.2695C198.213 18.1827 198.12 18.1249 198.039 18.1249H196.156L196.916 17.3646Z" fill="url(#paint0_linear_1_300)"/>
</g>
<defs>
<linearGradient id="paint0_linear_1_300" x1="7" y1="16.3833" x2="143" y2="16.3833" gradientUnits="userSpaceOnUse">
<stop stop-color="#101010"/>
<stop offset="1" stop-color="#CCCCCC"/>
</linearGradient>
<clipPath id="clip0_1_300">
<rect width="240" height="30.624" fill="white" transform="translate(0 0.187988)"/>
</clipPath>
</defs>
</svg>
