<svg width="150" height="37" viewBox="0 0 150 37" fill="none" xmlns="http://www.w3.org/2000/svg">
<g clip-path="url(#clip0_1_283)">
<path d="M12.569 14.628V13.207C12.0757 13.1288 11.5775 13.086 11.0781 13.0788C6.24325 13.0686 1.96279 16.2017 0.510957 20.8134C-0.940876 25.4251 0.772847 30.4452 4.7416 33.2065C1.76872 30.0248 0.943249 25.3931 2.63391 21.3803C4.32457 17.3675 8.21563 14.723 12.569 14.628Z" fill="#808080"/>
<path d="M12.8369 30.7255C15.5401 30.7219 17.7621 28.5922 17.8805 25.8916V1.79199H22.2834C22.1935 1.28843 22.1506 0.77761 22.1553 0.266113H16.1333V24.3424C16.0332 27.0568 13.8059 29.2068 11.0897 29.2112C10.278 29.2044 9.4796 29.0047 8.76015 28.6288C9.70586 29.9391 11.221 30.7184 12.8369 30.7255Z" fill="#808080"/>
<path d="M30.5069 9.96885V8.62934C28.8865 8.62989 27.3021 8.15173 25.9525 7.25488C27.1356 8.63018 28.7343 9.58285 30.5069 9.96885Z" fill="#808080"/>
<path d="M25.9525 7.25487C24.6231 5.74102 23.8903 3.79502 23.8908 1.78033H22.2834C22.703 4.03151 24.0298 6.01113 25.9525 7.25487Z" fill="#D9D9D9"/>
<path d="M11.0781 19.1009C8.75833 19.1128 6.7444 20.702 6.19345 22.9554C5.64249 25.2088 6.69594 27.5479 8.74848 28.6289C7.63632 27.0934 7.47921 25.0639 8.34181 23.3756C9.20441 21.6873 10.941 20.6253 12.8369 20.6267C13.3424 20.633 13.8445 20.7115 14.3278 20.8597V14.7329C13.8342 14.6589 13.336 14.62 12.8369 14.6164H12.569V19.2756C12.0831 19.1453 11.5809 19.0864 11.0781 19.1009Z" fill="#D9D9D9"/>
<path d="M30.5068 9.96881V14.628C27.5072 14.6222 24.5853 13.6727 22.1553 11.914V24.156C22.1424 30.2647 17.1868 35.2099 11.0781 35.2099C8.80948 35.214 6.59553 34.5139 4.7416 33.2065C7.83555 36.534 12.6506 37.6294 16.8796 35.9677C21.1085 34.3059 23.8898 30.2256 23.8908 25.6819V13.4748C26.329 15.222 29.2545 16.1591 32.254 16.1539V10.1552C31.6668 10.1533 31.0813 10.0909 30.5068 9.96881Z" fill="#D9D9D9"/>
<path d="M22.1553 24.156V11.914C24.5928 13.6626 27.5187 14.5999 30.5185 14.5931V9.93389C28.7463 9.55966 27.1437 8.61939 25.9525 7.25487C24.0298 6.01114 22.703 4.03151 22.2834 1.78033H17.8805V25.8916C17.7924 28.0427 16.3516 29.902 14.2906 30.5242C12.2296 31.1465 10.0006 30.3951 8.73686 28.6521C6.68431 27.5712 5.63087 25.232 6.18183 22.9786C6.73278 20.7252 8.74671 19.136 11.0665 19.1241C11.5721 19.1287 12.0744 19.2071 12.5574 19.3571V14.6979C8.17959 14.7721 4.25913 17.4258 2.56367 21.4626C0.868199 25.4995 1.71802 30.1568 4.72997 33.3346C6.60218 34.599 8.81936 35.254 11.0781 35.2099C17.1868 35.2099 22.1424 30.2647 22.1553 24.156Z" fill="black"/>
<path d="M54.9645 14.7634H50.0956V34.5649H44.0038V14.7634H37.9235L37.9119 9.33545H56.6884L54.9645 14.7634Z" fill="black"/>
<path d="M104.922 14.7634H99.6343V34.5649H93.5541V14.7634H87.4505L87.4389 9.33545H106.646L104.922 14.7634Z" fill="black"/>
<path d="M63.8519 34.5649H57.8765L57.8299 17.3609H63.8519V34.5649Z" fill="black"/>
<path d="M72.25 21.0183L78.2138 15.1944H85.3889L77.8527 22.5093L86.2974 34.5649H79.6698L74.0322 26.19L72.25 27.9139V34.5649H66.2397V9.26556H72.25V21.0183Z" fill="black"/>
<path d="M136.022 21.0183L141.975 15.1944H149.15L141.613 22.5093L150 34.5649H143.372L137.746 26.19L136.022 27.9139V34.5649H130L129.942 9.26556H136.022V21.0183Z" fill="black"/>
<path d="M60.8467 15.3924C62.5192 15.3924 63.8751 14.0365 63.8751 12.3639C63.8751 10.6913 62.5192 9.33545 60.8467 9.33545C59.1741 9.33545 57.8182 10.6913 57.8182 12.3639C57.8182 14.0365 59.1741 15.3924 60.8467 15.3924Z" fill="black"/>
<path d="M105.878 24.2681C105.879 18.8944 110.013 14.4257 115.371 14.0063C115.103 14.0063 114.742 14.0063 114.474 14.0063C109.029 14.3239 104.777 18.8317 104.777 24.2856C104.777 29.7395 109.029 34.2473 114.474 34.5649C114.742 34.5649 115.103 34.5649 115.371 34.5649C110 34.1444 105.861 29.6552 105.878 24.2681Z" fill="#808080"/>
<path d="M117.712 13.9714C117.432 13.9714 117.071 13.9714 116.803 13.9714C122.143 14.4124 126.253 18.8751 126.253 24.2332C126.253 29.5913 122.143 34.054 116.803 34.495C117.071 34.495 117.432 34.495 117.712 34.495C123.399 34.495 128.009 29.885 128.009 24.1983C128.009 18.5115 123.399 13.9015 117.712 13.9015V13.9714Z" fill="#D9D9D9"/>
<path d="M116.081 29.2768C113.315 29.2768 111.073 27.0343 111.073 24.2682C111.073 21.502 113.315 19.2595 116.081 19.2595C118.847 19.2595 121.09 21.502 121.09 24.2682C121.083 27.0317 118.845 29.2704 116.081 29.2768ZM116.081 13.9714C110.394 13.9714 105.784 18.5814 105.784 24.2682C105.784 29.9549 110.394 34.5649 116.081 34.5649C121.768 34.5649 126.378 29.9549 126.378 24.2682C126.378 21.5373 125.293 18.9183 123.362 16.9872C121.431 15.0562 118.812 13.9714 116.081 13.9714Z" fill="black"/>
</g>
<defs>
<clipPath id="clip0_1_283">
<rect width="150" height="36.4678" fill="white" transform="translate(0 0.266113)"/>
</clipPath>
</defs>
</svg>
