<svg width="105" height="20" viewBox="0 0 105 20" fill="none" xmlns="http://www.w3.org/2000/svg">
<path d="M1.584 19V6.016H4.176V8.824L3.84 8.392C4.112 7.512 4.608 6.848 5.328 6.4C6.048 5.952 6.872 5.728 7.8 5.728C8.84 5.728 9.76 6.008 10.56 6.568C11.376 7.112 11.92 7.84 12.192 8.752L11.424 8.824C11.808 7.784 12.392 7.008 13.176 6.496C13.976 5.984 14.888 5.728 15.912 5.728C16.808 5.728 17.616 5.936 18.336 6.352C19.072 6.768 19.656 7.344 20.088 8.08C20.52 8.816 20.736 9.656 20.736 10.6V19H18.024V11.344C18.024 10.688 17.904 10.136 17.664 9.688C17.44 9.224 17.12 8.872 16.704 8.632C16.304 8.376 15.832 8.248 15.288 8.248C14.744 8.248 14.264 8.376 13.848 8.632C13.432 8.872 13.104 9.224 12.864 9.688C12.624 10.152 12.504 10.704 12.504 11.344V19H9.816V11.344C9.816 10.688 9.696 10.136 9.456 9.688C9.232 9.224 8.912 8.872 8.496 8.632C8.096 8.376 7.616 8.248 7.056 8.248C6.512 8.248 6.032 8.376 5.616 8.632C5.2 8.872 4.872 9.224 4.632 9.688C4.408 10.152 4.296 10.704 4.296 11.344V19H1.584ZM27.3267 19.288C26.4467 19.288 25.6707 19.136 24.9987 18.832C24.3427 18.512 23.8307 18.08 23.4627 17.536C23.0947 16.976 22.9107 16.32 22.9107 15.568C22.9107 14.864 23.0627 14.232 23.3667 13.672C23.6867 13.112 24.1747 12.64 24.8307 12.256C25.4867 11.872 26.3107 11.6 27.3027 11.44L31.8147 10.696V12.832L27.8307 13.528C27.1107 13.656 26.5827 13.888 26.2467 14.224C25.9107 14.544 25.7427 14.96 25.7427 15.472C25.7427 15.968 25.9267 16.376 26.2947 16.696C26.6787 17 27.1667 17.152 27.7587 17.152C28.4947 17.152 29.1347 16.992 29.6787 16.672C30.2387 16.352 30.6707 15.928 30.9747 15.4C31.2787 14.856 31.4307 14.256 31.4307 13.6V10.264C31.4307 9.624 31.1907 9.104 30.7107 8.704C30.2467 8.288 29.6227 8.08 28.8387 8.08C28.1187 8.08 27.4867 8.272 26.9427 8.656C26.4147 9.024 26.0227 9.504 25.7667 10.096L23.5107 8.968C23.7507 8.328 24.1427 7.768 24.6867 7.288C25.2307 6.792 25.8627 6.408 26.5827 6.136C27.3187 5.864 28.0947 5.728 28.9107 5.728C29.9347 5.728 30.8387 5.92 31.6227 6.304C32.4227 6.688 33.0387 7.224 33.4707 7.912C33.9187 8.584 34.1427 9.368 34.1427 10.264V19H31.5507V16.648L32.1027 16.72C31.7987 17.248 31.4067 17.704 30.9267 18.088C30.4627 18.472 29.9267 18.768 29.3187 18.976C28.7267 19.184 28.0627 19.288 27.3267 19.288ZM37.1137 19V0.831999H39.8257V13L38.7697 12.736L45.2737 6.016H48.6577L43.7617 11.224L48.8737 19H45.7537L41.1937 12.112L42.8017 11.896L38.9617 15.976L39.8257 14.176V19H37.1137ZM56.3925 19.288C55.0965 19.288 53.9445 18.992 52.9365 18.4C51.9445 17.792 51.1685 16.976 50.6085 15.952C50.0485 14.912 49.7685 13.752 49.7685 12.472C49.7685 11.16 50.0485 10 50.6085 8.992C51.1845 7.984 51.9525 7.192 52.9125 6.616C53.8725 6.024 54.9605 5.728 56.1765 5.728C57.1525 5.728 58.0245 5.896 58.7925 6.232C59.5605 6.568 60.2085 7.032 60.7365 7.624C61.2645 8.2 61.6645 8.864 61.9365 9.616C62.2245 10.368 62.3685 11.168 62.3685 12.016C62.3685 12.224 62.3605 12.44 62.3445 12.664C62.3285 12.888 62.2965 13.096 62.2485 13.288H51.9045V11.128H60.7125L59.4165 12.112C59.5765 11.328 59.5205 10.632 59.2485 10.024C58.9925 9.4 58.5925 8.912 58.0485 8.56C57.5205 8.192 56.8965 8.008 56.1765 8.008C55.4565 8.008 54.8165 8.192 54.2565 8.56C53.6965 8.912 53.2645 9.424 52.9605 10.096C52.6565 10.752 52.5365 11.552 52.6005 12.496C52.5205 13.376 52.6405 14.144 52.9605 14.8C53.2965 15.456 53.7605 15.968 54.3525 16.336C54.9605 16.704 55.6485 16.888 56.4165 16.888C57.2005 16.888 57.8645 16.712 58.4085 16.36C58.9685 16.008 59.4085 15.552 59.7285 14.992L61.9365 16.072C61.6805 16.68 61.2805 17.232 60.7365 17.728C60.2085 18.208 59.5685 18.592 58.8165 18.88C58.0805 19.152 57.2725 19.288 56.3925 19.288ZM70.4313 19.144C69.0713 19.144 68.0153 18.76 67.2633 17.992C66.5113 17.224 66.1353 16.144 66.1353 14.752V8.464H63.8553V6.016H64.2153C64.8233 6.016 65.2953 5.84 65.6313 5.488C65.9673 5.136 66.1353 4.656 66.1353 4.048V3.04H68.8473V6.016H71.7993V8.464H68.8473V14.632C68.8473 15.08 68.9193 15.464 69.0633 15.784C69.2073 16.088 69.4393 16.328 69.7593 16.504C70.0793 16.664 70.4953 16.744 71.0073 16.744C71.1353 16.744 71.2793 16.736 71.4393 16.72C71.5993 16.704 71.7513 16.688 71.8953 16.672V19C71.6713 19.032 71.4233 19.064 71.1513 19.096C70.8793 19.128 70.6393 19.144 70.4313 19.144ZM98.5559 19V15.88H101.316V19H98.5559Z" fill="#00A650"/>
<path d="M80.4378 19.288C79.1418 19.288 77.9898 18.992 76.9818 18.4C75.9898 17.792 75.2138 16.976 74.6538 15.952C74.0938 14.912 73.8138 13.752 73.8138 12.472C73.8138 11.16 74.0938 10 74.6538 8.992C75.2298 7.984 75.9978 7.192 76.9578 6.616C77.9178 6.024 79.0058 5.728 80.2218 5.728C81.1978 5.728 82.0698 5.896 82.8378 6.232C83.6058 6.568 84.2538 7.032 84.7818 7.624C85.3098 8.2 85.7098 8.864 85.9818 9.616C86.2698 10.368 86.4138 11.168 86.4138 12.016C86.4138 12.224 86.4058 12.44 86.3898 12.664C86.3738 12.888 86.3418 13.096 86.2938 13.288H75.9498V11.128H84.7578L83.4618 12.112C83.6218 11.328 83.5658 10.632 83.2938 10.024C83.0378 9.4 82.6378 8.912 82.0938 8.56C81.5658 8.192 80.9418 8.008 80.2218 8.008C79.5018 8.008 78.8618 8.192 78.3018 8.56C77.7418 8.912 77.3098 9.424 77.0058 10.096C76.7018 10.752 76.5818 11.552 76.6458 12.496C76.5658 13.376 76.6858 14.144 77.0058 14.8C77.3418 15.456 77.8058 15.968 78.3978 16.336C79.0058 16.704 79.6938 16.888 80.4618 16.888C81.2458 16.888 81.9098 16.712 82.4538 16.36C83.0138 16.008 83.4538 15.552 83.7738 14.992L85.9818 16.072C85.7258 16.68 85.3258 17.232 84.7818 17.728C84.2538 18.208 83.6138 18.592 82.8618 18.88C82.1258 19.152 81.3178 19.288 80.4378 19.288ZM88.8606 19V6.016H91.4526V8.632L91.2126 8.248C91.5006 7.4 91.9646 6.792 92.6046 6.424C93.2446 6.04 94.0126 5.848 94.9086 5.848H95.7006V8.32H94.5726C93.6766 8.32 92.9486 8.6 92.3886 9.16C91.8446 9.704 91.5726 10.488 91.5726 11.512V19H88.8606Z" fill="#FFD600"/>
</svg>
